{"title":"Casting.Couch.2013.UNRATED.WEBRip XviD juggs","uid":8269261,"size":740891239,"categoryP":"video","categoryS":"movies","magnet":"?xt=urn:btih:5cc2e6285b271867309429bfde2dd45659f86aec&amp;dn=Casting.Couch.2013.UNRATED.WEBRip+XviD+juggs&amp;tr=udp%3A%2F%2Ftracker.openbittorrent.com%3A80&amp;tr=udp%3A%2F%2Fopen.demonii.com%3A1337&amp;tr=udp%3A%2F%2Ftracker.coppersurfer.tk%3A6969&amp;tr=udp%3A%2F%2Fexodus.desync.com%3A6969","seeders":5,"leechers":5,"uploader":"juggs99","files":3,"time":1363568602,"description":"Source : NGB (Thanks)\n &lt;a href=&quot;\nhttp://www.imdb.com/title/tt2313189/&quot; rel=&quot;nofollow&quot; target=&quot;_NEW&quot;&gt;\nhttp://www.imdb.com/title/tt2313189/&lt;/a&gt;\n\n\nFormat : AVI\nFormat/Info : Audio Video Interleave\nFile size : 700 MiB\nDuration : 1h 33mn\nOverall bit rate : 1 048 Kbps\nWriting library : VirtualDub build 32842/release\n\nVideo\nID : 0\nFormat : MPEG-4 Visual\nFormat profile : Advanced Simple@L5\nFormat settings, BVOP : 4\nFormat settings, QPel : No\nFormat settings, GMC : No warppoints\nFormat settings, Matrix : Default (H.263)\nMuxing mode : Packed bitstream\nCodec ID : XVID\nCodec ID/Hint : XviD\nDuration : 1h 33mn\nBit rate : 911 Kbps\nWidth : 640 pixels\nHeight : 352 pixels\nDisplay aspect ratio : 16:9\nFrame rate : 23.976 fps\nColor space : YUV\nChroma subsampling : 4:2:0\nBit depth : 8 bits\nScan type : Progressive\nCompression mode : Lossy\nBits/(Pixel*Frame) : 0.169\nStream size : 608 MiB (87%)\nWriting library : XviD 64\n\nAudio\nID : 1\nFormat : MPEG Audio\nFormat version : Version 1\nFormat profile : Layer 3\nCodec ID : 55\nCodec ID/Hint : MP3\nDuration : 1h 33mn\nBit rate mode : Constant\nBit rate : 128 Kbps\nChannel(s) : 2 channels\nSampling rate : 44.1 KHz\nCompression mode : Lossy\nStream size : 85.5 MiB (12%)\nAlignment : Split accross interleaves\nInterleave, duration : 42 ms (1.00 video frame)\nInterleave, preload duration : 500 ms\nWriting library : LAME3.99r\nEncoding settings : -m s -V 4 -q 3 -lowpass 17 -b 128\n\n\nPlot\nDesperate to meet new girls, six down-on-their-luck guys come up with the ultimate plan to hook up - cast a fake movie. When tons of hot chicks show up for the audition, it's a matter of who's willing to go the farthest to get the part.\n\n &lt;a href=&quot;\nhttp://www.shotpix.com/images/63951551623966421314.png&quot; rel=&quot;nofollow&quot; target=&quot;_NEW&quot;&gt;\nhttp://www.shotpix.com/images/63951551623966421314.png&lt;/a&gt; &lt;a href=&quot;\nhttp://www.shotpix.com/images/24630329173767700591.png&quot; rel=&quot;nofollow&quot; target=&quot;_NEW&quot;&gt;\nhttp://www.shotpix.com/images/24630329173767700591.png&lt;/a&gt; &lt;a href=&quot;\nhttp://www.shotpix.com/images/12392878852786385847.png&quot; rel=&quot;nofollow&quot; target=&quot;_NEW&quot;&gt;\nhttp://www.shotpix.com/images/12392878852786385847.png&lt;/a&gt;","torrent":{"xt":"urn:btih:5cc2e6285b271867309429bfde2dd45659f86aec","amp;dn":"Casting.Couch.2013.UNRATED.WEBRip+XviD+juggs","amp;tr":["udp%3A%2F%2Ftracker.openbittorrent.com%3A80","udp%3A%2F%2Fopen.demonii.com%3A1337","udp%3A%2F%2Ftracker.coppersurfer.tk%3A6969","udp%3A%2F%2Fexodus.desync.com%3A6969"],"infoHash":"5cc2e6285b271867309429bfde2dd45659f86aec","infoHashBuffer":{"type":"Buffer","data":[92,194,230,40,91,39,24,103,48,148,41,191,222,45,212,86,89,248,106,236]},"announce":[],"urlList":[]}}